<?xml version="1.0" encoding="UTF-8" standalone="no"?>
<!-- Created with Inkscape (http://www.inkscape.org/) -->

<svg
   width="150"
   height="120"
   viewBox="0 0 150 120"
   version="1.1"
   id="svg5"
   sodipodi:docname="logo.svg"
   inkscape:version="1.2.2 (732a01da63, 2022-12-09)"
   xmlns:inkscape="http://www.inkscape.org/namespaces/inkscape"
   xmlns:sodipodi="http://sodipodi.sourceforge.net/DTD/sodipodi-0.dtd"
   xmlns="http://www.w3.org/2000/svg"
   xmlns:svg="http://www.w3.org/2000/svg">
  <sodipodi:namedview
     id="namedview22"
     pagecolor="#ffffff"
     bordercolor="#111111"
     borderopacity="1"
     inkscape:showpageshadow="0"
     inkscape:pageopacity="0"
     inkscape:pagecheckerboard="1"
     inkscape:deskcolor="#d1d1d1"
     showgrid="false"
     inkscape:current-layer="svg5" />
  <defs
     id="defs2" />
  <path
     id="path7664"
     style="color:#000000;fill:#000000;stroke-linejoin:round;-inkscape-stroke:none"
     d="M 75 0 A 5.0005 5.0005 0 0 0 70 5 L 70 30 L 80 30 L 80 10 L 140 10 L 140 65 L 115.35547 65 L 115.35547 75 L 145 75 A 5.0005 5.0005 0 0 0 150 70 L 150 5 A 5.0005 5.0005 0 0 0 145 0 L 75 0 z M 90 20 L 90 30 L 130 30 L 130 20 L 90 20 z M 5 35 A 5.0005 5.0005 0 0 0 0 40 L 0 85 A 5.0005 5.0005 0 0 0 5 90 L 48.787109 90 L 48.787109 80 L 10 80 L 10 45 L 70 45 L 70 85.857422 L 60.857422 76.714844 L 53.787109 83.787109 L 75 105 L 110.35547 69.644531 L 103.28516 62.574219 L 80 85.857422 L 80 45 L 80 40 L 80 35 L 75 35 L 70 35 L 5 35 z M 90 40 L 90 50 L 120 50 L 120 40 L 90 40 z M 23 57.5 A 5 5 0 0 0 18 62.5 A 5 5 0 0 0 23 67.5 A 5 5 0 0 0 28 62.5 A 5 5 0 0 0 23 57.5 z M 57 57.5 A 5 5 0 0 0 52 62.5 A 5 5 0 0 0 57 67.5 A 5 5 0 0 0 62 62.5 A 5 5 0 0 0 57 57.5 z M 40 57.574219 A 5 5 0 0 0 35 62.574219 A 5 5 0 0 0 40 67.574219 A 5 5 0 0 0 45 62.574219 A 5 5 0 0 0 40 57.574219 z M 115 80 L 115 110 L 35 110 L 35 95 L 25 95 L 25 115 A 5.0005 5.0005 0 0 0 30 120 L 120 120 A 5.0005 5.0005 0 0 0 125 115 L 125 80 L 115 80 z M 40 95 L 40 105 L 67.929688 105 L 57.929688 95 L 40 95 z M 92.070312 95 L 82.070312 105 L 110 105 L 110 95 L 92.070312 95 z "
     inkscape:label="final" />
</svg>
