<?xml version="1.0" encoding="UTF-8" standalone="no"?>
<!-- Created with Inkscape (http://www.inkscape.org/) -->

<svg
   width="150"
   height="120"
   viewBox="0 0 150 120"
   version="1.1"
   id="svg5"
   xmlns="http://www.w3.org/2000/svg"
   xmlns:svg="http://www.w3.org/2000/svg">
  <defs
     id="defs2" />
  <path
     id="path5581"
     style="color:#000000;fill:#000000;stroke-linejoin:round;-inkscape-stroke:none"
     d="M 75 0 C 72.238694 0.00027608925 70.000276 2.2386934 70 5 L 70 25.251953 L 75 25.251953 C 76.8177 25.251953 78.525868 25.74804 80 26.607422 L 80 25.251953 L 80 10 L 140 10 L 140 61.109375 L 106.82031 61.109375 C 105.49364 61.109112 104.22124 61.63606 103.2832 62.574219 L 94.748047 71.109375 L 94.748047 85.251953 L 108.89062 71.109375 L 145 71.109375 C 147.76131 71.109099 149.99972 68.870681 150 66.109375 L 150 5 C 149.99972 2.2386934 147.76131 0.00027608925 145 0 L 75 0 z M 94.748047 85.251953 L 87.675781 78.179688 L 80 85.855469 L 80 35.251953 A 5.0005 5.0005 0 0 0 75 30.251953 L 5 30.251953 A 5.0005 5.0005 0 0 0 0 35.251953 L 0 80.251953 A 5.0005 5.0005 0 0 0 5 85.251953 L 55.251953 85.251953 L 55.251953 75.251953 L 10 75.251953 L 10 40.251953 L 70 40.251953 L 70 85.857422 L 62.324219 78.179688 L 55.251953 85.251953 L 71.464844 101.46484 L 75 105 L 78.535156 101.46484 L 94.748047 85.251953 z M 90 20 L 90 30 L 130 30 L 130 20 L 90 20 z M 90 40 L 90 50 L 120 50 L 120 40 L 90 40 z M 23 53.5 A 5 5 0 0 0 18 58.5 A 5 5 0 0 0 23 63.5 A 5 5 0 0 0 28 58.5 A 5 5 0 0 0 23 53.5 z M 57 53.5 A 5 5 0 0 0 52 58.5 A 5 5 0 0 0 57 63.5 A 5 5 0 0 0 62 58.5 A 5 5 0 0 0 57 53.5 z M 40 53.574219 A 5 5 0 0 0 35 58.574219 A 5 5 0 0 0 40 63.574219 A 5 5 0 0 0 45 58.574219 A 5 5 0 0 0 40 53.574219 z M 115 76.109375 L 115 110 L 35 110 L 35 90.251953 L 25 90.251953 L 25 115 A 5.0005 5.0005 0 0 0 30 120 L 120 120 A 5.0005 5.0005 0 0 0 125 115 L 125 76.109375 L 115 76.109375 z M 40 95 L 40 105 L 67.929688 105 L 57.929688 95 L 40 95 z M 92.070312 95 L 82.070312 105 L 110 105 L 110 95 L 92.070312 95 z " />
</svg>
